<?xml version="1.0" standalone="no"?>
<!DOCTYPE svg PUBLIC "-//W3C//DTD SVG 20010904//EN"
 "http://www.w3.org/TR/2001/REC-SVG-20010904/DTD/svg10.dtd">
<svg version="1.0" xmlns="http://www.w3.org/2000/svg"
 width="225.000000pt" height="225.000000pt" viewBox="0 0 225.000000 225.000000"
 preserveAspectRatio="xMidYMid meet">

<g transform="translate(0.000000,225.000000) scale(0.100000,-0.100000)"
fill="#000000" stroke="none">
<path d="M725 1344 c-217 -125 -255 -156 -255 -207 0 -60 26 -82 243 -207 172
-99 214 -120 248 -120 82 0 130 98 80 162 -19 23 -222 148 -242 148 -27 0 3
23 111 84 66 38 127 78 135 89 8 12 15 41 15 65 0 35 -6 49 -29 73 -52 52 -79
44 -306 -87z"/>
<path d="M1288 1445 c-15 -8 -32 -24 -38 -35 -16 -30 -12 -95 8 -119 9 -11
111 -75 225 -141 219 -126 251 -137 301 -105 49 32 59 121 18 158 -9 8 -107
68 -217 132 -209 122 -249 137 -297 110z"/>
</g>
</svg>
